<svg xmlns="http://www.w3.org/2000/svg" xmlns:xlink="http://www.w3.org/1999/xlink" width="1000" zoomAndPan="magnify" viewBox="0 0 750 749.999995" height="1000" preserveAspectRatio="xMidYMid meet" version="1.0"><defs><clipPath id="id1"><path d="M 250 350 L 543 350 L 543 620.503906 L 250 620.503906 Z M 250 350 " clip-rule="nonzero"/></clipPath><clipPath id="id2"><path d="M 419 164.503906 L 710 164.503906 L 710 439 L 419 439 Z M 419 164.503906 " clip-rule="nonzero"/></clipPath></defs><path fill="#00c2cb" d="M 295.597656 356.429688 L 496.988281 356.429688 C 518.972656 356.429688 536.796875 374.242188 536.796875 396.21875 L 536.796875 530.425781 C 536.796875 552.398438 518.972656 570.210938 496.988281 570.210938 L 492.3125 570.210938 L 492.3125 614.683594 L 447.808594 570.210938 L 295.597656 570.210938 C 273.613281 570.210938 255.78125 552.398438 255.78125 530.425781 L 255.78125 396.21875 C 255.78125 374.242188 273.613281 356.429688 295.597656 356.429688 " fill-opacity="1" fill-rule="nonzero"/><g clip-path="url(#id1)"><path stroke-linecap="round" transform="matrix(0.272694, 0, 0, -0.272564, -189.849948, 974.291469)" fill="none" stroke-linejoin="round" d="M 1780.189971 2266.848326 L 2518.711631 2266.848326 C 2599.330762 2266.848326 2664.69414 2201.496759 2664.69414 2120.867829 L 2664.69414 1628.481031 C 2664.69414 1547.866433 2599.330762 1482.514866 2518.711631 1482.514866 L 2501.565025 1482.514866 L 2501.565025 1319.336588 L 2338.364286 1482.514866 L 1780.189971 1482.514866 C 1699.57084 1482.514866 1634.178812 1547.866433 1634.178812 1628.481031 L 1634.178812 2120.867829 C 1634.178812 2201.496759 1699.57084 2266.848326 1780.189971 2266.848326 Z M 1780.189971 2266.848326 " stroke="#ffffff" stroke-width="40" stroke-opacity="1" stroke-miterlimit="10"/></g><path fill="#ffffff" d="M 418.363281 468.617188 C 418.363281 475.242188 423.722656 480.597656 430.347656 480.597656 C 436.964844 480.597656 442.332031 475.242188 442.332031 468.617188 C 442.332031 462.007812 436.964844 456.640625 430.347656 456.640625 C 423.722656 456.640625 418.363281 462.007812 418.363281 468.617188 " fill-opacity="1" fill-rule="nonzero"/><path fill="#ffffff" d="M 384.308594 468.617188 C 384.308594 475.242188 389.667969 480.597656 396.292969 480.597656 C 402.910156 480.597656 408.277344 475.242188 408.277344 468.617188 C 408.277344 462.007812 402.910156 456.640625 396.292969 456.640625 C 389.667969 456.640625 384.308594 462.007812 384.308594 468.617188 " fill-opacity="1" fill-rule="nonzero"/><path fill="#ffffff" d="M 350.253906 468.617188 C 350.253906 475.242188 355.613281 480.597656 362.238281 480.597656 C 368.855469 480.597656 374.222656 475.242188 374.222656 468.617188 C 374.222656 462.007812 368.855469 456.640625 362.238281 456.640625 C 355.613281 456.640625 350.253906 462.007812 350.253906 468.617188 " fill-opacity="1" fill-rule="nonzero"/><path fill="#00c2cb" d="M 332.65625 409.941406 C 353.886719 385.050781 366.734375 352.789062 366.734375 317.515625 C 366.734375 238.78125 302.875 174.953125 224.101562 174.953125 C 145.328125 174.953125 81.460938 238.78125 81.460938 317.515625 C 81.460938 396.261719 145.328125 460.089844 224.101562 460.089844 C 244.46875 460.089844 263.824219 455.789062 281.355469 448.101562 L 332.65625 485.558594 L 332.65625 409.941406 " fill-opacity="1" fill-rule="nonzero"/><path stroke-linecap="round" transform="matrix(0.272694, 0, 0, -0.272564, -189.849948, 974.291469)" fill="none" stroke-linejoin="round" d="M 1916.087926 2070.521326 C 1993.942399 2161.841542 2041.056174 2280.205269 2041.056174 2409.61857 C 2041.056174 2698.483963 1806.876794 2932.660413 1518.0059 2932.660413 C 1229.135006 2932.660413 994.926977 2698.483963 994.926977 2409.61857 C 994.926977 2120.710183 1229.135006 1886.533733 1518.0059 1886.533733 C 1592.694626 1886.533733 1663.673267 1902.312697 1727.962296 1930.517058 L 1916.087926 1793.092457 Z M 1916.087926 2070.521326 " stroke="#ffffff" stroke-width="40" stroke-opacity="1" stroke-miterlimit="10"/><path stroke-linecap="round" transform="matrix(0.272694, 0, 0, -0.272564, -189.849948, 974.291469)" fill="none" stroke-linejoin="round" d="M 1849.850744 2513.048891 C 1849.850744 2513.048891 1701.289798 2513.048891 1518.0059 2513.048891 C 1334.722002 2513.048891 1186.132406 2513.048891 1186.132406 2513.048891 C 1186.132406 2513.048891 1334.722002 2513.048891 1518.0059 2513.048891 C 1701.289798 2513.048891 1849.850744 2513.048891 1849.850744 2513.048891 Z M 1849.850744 2513.048891 " stroke="#ffffff" stroke-width="40" stroke-opacity="1" stroke-miterlimit="10"/><path stroke-linecap="round" transform="matrix(0.272694, 0, 0, -0.272564, -189.849948, 974.291469)" fill="none" stroke-linejoin="round" d="M 1849.850744 2383.477943 C 1849.850744 2383.477943 1701.289798 2383.477943 1518.0059 2383.477943 C 1334.722002 2383.477943 1186.132406 2383.477943 1186.132406 2383.477943 C 1186.132406 2383.477943 1334.722002 2383.477943 1518.0059 2383.477943 C 1701.289798 2383.477943 1849.850744 2383.477943 1849.850744 2383.477943 Z M 1849.850744 2383.477943 " stroke="#ffffff" stroke-width="40" stroke-opacity="1" stroke-miterlimit="10"/><path stroke-linecap="round" transform="matrix(0.272694, 0, 0, -0.272564, -189.849948, 974.291469)" fill="none" stroke-linejoin="round" d="M 1849.850744 2253.906996 C 1849.850744 2253.906996 1701.289798 2253.906996 1518.0059 2253.906996 C 1334.722002 2253.906996 1186.132406 2253.906996 1186.132406 2253.906996 C 1186.132406 2253.906996 1334.722002 2253.906996 1518.0059 2253.906996 C 1701.289798 2253.906996 1849.850744 2253.906996 1849.850744 2253.906996 Z M 1849.850744 2253.906996 " stroke="#ffffff" stroke-width="40" stroke-opacity="1" stroke-miterlimit="10"/><path fill="#00c2cb" d="M 466.757812 432.566406 C 466.109375 432.566406 465.4375 432.449219 464.808594 432.207031 C 462.6875 431.398438 461.292969 429.363281 461.304688 427.09375 L 461.496094 373.125 L 445.761719 373.082031 C 434.257812 373.082031 424.894531 363.722656 424.894531 352.214844 L 424.894531 190.902344 C 424.894531 179.390625 434.257812 170.03125 445.773438 170.03125 L 682.910156 170.03125 C 694.414062 170.03125 703.789062 179.390625 703.789062 190.902344 L 703.789062 352.214844 C 703.789062 363.722656 694.414062 373.082031 682.910156 373.082031 L 522.4375 373.082031 L 470.828125 430.746094 C 469.773438 431.929688 468.28125 432.566406 466.757812 432.566406 " fill-opacity="1" fill-rule="nonzero"/><g clip-path="url(#id2)"><path fill="#ffffff" d="M 682.910156 164.582031 L 445.773438 164.582031 C 431.253906 164.582031 419.441406 176.390625 419.441406 190.902344 L 419.441406 352.214844 C 419.441406 366.726562 431.253906 378.535156 445.773438 378.535156 L 456.019531 378.566406 L 455.851562 427.085938 C 455.839844 431.609375 458.621094 435.675781 462.847656 437.296875 C 464.117188 437.785156 465.445312 438.019531 466.757812 438.019531 C 469.804688 438.019531 472.777344 436.742188 474.886719 434.386719 L 524.875 378.535156 L 682.910156 378.535156 C 697.429688 378.535156 709.242188 366.726562 709.242188 352.214844 L 709.242188 190.902344 C 709.242188 176.390625 697.429688 164.582031 682.910156 164.582031 Z M 682.910156 175.484375 C 691.421875 175.484375 698.335938 182.394531 698.335938 190.902344 L 698.335938 352.214844 C 698.335938 360.730469 691.421875 367.632812 682.910156 367.632812 L 519.996094 367.632812 L 466.757812 427.117188 L 466.960938 367.695312 L 445.773438 367.632812 C 437.25 367.632812 430.347656 360.730469 430.347656 352.214844 L 430.347656 190.902344 C 430.347656 182.394531 437.25 175.484375 445.773438 175.484375 L 682.910156 175.484375 " fill-opacity="1" fill-rule="nonzero"/></g><path fill="#ffffff" d="M 586.414062 301.300781 C 586.414062 307.921875 591.769531 313.277344 598.394531 313.277344 C 605.011719 313.277344 610.378906 307.921875 610.378906 301.300781 C 610.378906 294.6875 605.011719 289.324219 598.394531 289.324219 C 591.769531 289.324219 586.414062 294.6875 586.414062 301.300781 " fill-opacity="1" fill-rule="nonzero"/><path fill="#ffffff" d="M 552.359375 301.300781 C 552.359375 307.921875 557.714844 313.277344 564.339844 313.277344 C 570.957031 313.277344 576.324219 307.921875 576.324219 301.300781 C 576.324219 294.6875 570.957031 289.324219 564.339844 289.324219 C 557.714844 289.324219 552.359375 294.6875 552.359375 301.300781 " fill-opacity="1" fill-rule="nonzero"/><path fill="#ffffff" d="M 518.304688 301.300781 C 518.304688 307.921875 523.660156 313.277344 530.285156 313.277344 C 536.902344 313.277344 542.269531 307.921875 542.269531 301.300781 C 542.269531 294.6875 536.902344 289.324219 530.285156 289.324219 C 523.660156 289.324219 518.304688 294.6875 518.304688 301.300781 " fill-opacity="1" fill-rule="nonzero"/></svg>