<svg xmlns="http://www.w3.org/2000/svg" xmlns:xlink="http://www.w3.org/1999/xlink" width="500" zoomAndPan="magnify" viewBox="0 0 375 374.999991" height="500" preserveAspectRatio="xMidYMid meet" version="1.0"><defs><clipPath id="id1"><path d="M 195 234 L 269 234 L 269 337.324219 L 195 337.324219 Z M 195 234 " clip-rule="nonzero"/></clipPath><clipPath id="id2"><path d="M 78 232 L 144 232 L 144 337.324219 L 78 337.324219 Z M 78 232 " clip-rule="nonzero"/></clipPath><clipPath id="id3"><path d="M 215 234 L 269 234 L 269 337.324219 L 215 337.324219 Z M 215 234 " clip-rule="nonzero"/></clipPath><clipPath id="id4"><path d="M 198 234 L 269 234 L 269 337.324219 L 198 337.324219 Z M 198 234 " clip-rule="nonzero"/></clipPath><clipPath id="id5"><path d="M 91 311 L 144 311 L 144 337.324219 L 91 337.324219 Z M 91 311 " clip-rule="nonzero"/></clipPath><clipPath id="id6"><path d="M 83 273 L 144 273 L 144 337.324219 L 83 337.324219 Z M 83 273 " clip-rule="nonzero"/></clipPath><clipPath id="id7"><path d="M 26.359375 143.824219 L 322.609375 143.824219 L 322.609375 337.324219 L 26.359375 337.324219 Z M 26.359375 143.824219 " clip-rule="nonzero"/></clipPath><clipPath id="id8"><path d="M 310 189 L 322.609375 189 L 322.609375 205 L 310 205 Z M 310 189 " clip-rule="nonzero"/></clipPath></defs><g clip-path="url(#id1)"><path fill="#ff914d" d="M 230.636719 234.46875 C 230.636719 234.46875 244.058594 315.777344 249.425781 317.425781 C 260.574219 314.535156 268.421875 335.195312 268.007812 337.257812 C 224.625 337.410156 220.929688 337.257812 220.929688 337.257812 C 220.929688 337.257812 212.667969 331.46875 216.386719 319.90625 C 210.605469 309.574219 195.738281 271.992188 195.738281 271.992188 C 195.738281 271.992188 212.671875 233.703125 230.636719 234.46875 " fill-opacity="1" fill-rule="nonzero"/></g><g clip-path="url(#id2)"><path fill="#ff914d" d="M 134.203125 232.753906 C 134.203125 232.753906 119.90625 315.777344 125.277344 317.425781 C 136.425781 314.535156 144.273438 335.195312 143.859375 337.257812 C 100.476562 337.410156 96.78125 337.257812 96.78125 337.257812 C 96.78125 337.257812 88.527344 331.46875 92.238281 319.90625 C 86.457031 309.574219 78.039062 269.105469 78.039062 269.105469 C 78.039062 269.105469 116.246094 231.988281 134.203125 232.753906 " fill-opacity="1" fill-rule="nonzero"/></g><g clip-path="url(#id3)"><path fill="#ff914d" d="M 268.019531 337.054688 C 268.007812 334.324219 261.285156 317.152344 251.566406 317.152344 C 250.867188 317.152344 250.15625 317.234375 249.425781 317.425781 C 244.082031 315.785156 230.78125 235.320312 230.636719 234.476562 L 230.640625 234.476562 C 230.878906 235.921875 244.105469 315.769531 249.425781 317.40625 C 250.15625 317.21875 250.867188 317.132812 251.566406 317.132812 C 261.304688 317.132812 268.039062 334.378906 268.019531 337.054688 M 215.425781 325.679688 C 215.421875 323.949219 215.699219 322.019531 216.382812 319.898438 C 216.386719 319.898438 216.386719 319.90625 216.386719 319.90625 C 215.707031 322.027344 215.425781 323.953125 215.425781 325.679688 " fill-opacity="1" fill-rule="nonzero"/></g><g clip-path="url(#id4)"><path fill="#ff5757" d="M 236.519531 337.304688 C 222.570312 337.304688 220.929688 337.238281 220.929688 337.238281 C 220.929688 337.238281 215.433594 333.382812 215.425781 325.679688 C 215.425781 323.953125 215.707031 322.027344 216.386719 319.90625 C 216.386719 319.90625 216.386719 319.898438 216.382812 319.898438 C 216.386719 319.894531 216.386719 319.894531 216.386719 319.886719 C 212.210938 312.433594 203.304688 290.777344 198.675781 279.304688 C 199.632812 277.074219 200.277344 275.714844 200.277344 275.714844 C 200.277344 275.714844 219.574219 253.820312 230.636719 234.476562 C 230.78125 235.320312 244.082031 315.785156 249.425781 317.425781 C 250.15625 317.234375 250.867188 317.152344 251.566406 317.152344 C 261.285156 317.152344 268.007812 334.324219 268.019531 337.054688 C 268.019531 337.128906 268.019531 337.1875 268.007812 337.238281 C 253.546875 337.285156 243.492188 337.304688 236.519531 337.304688 " fill-opacity="1" fill-rule="nonzero"/></g><g clip-path="url(#id5)"><path fill="#ff914d" d="M 143.875 337.054688 C 143.859375 334.324219 137.136719 317.152344 127.417969 317.152344 C 126.71875 317.152344 126.007812 317.234375 125.277344 317.425781 C 124.425781 317.164062 124.070312 314.867188 124.070312 311.1875 C 124.074219 314.859375 124.425781 317.152344 125.277344 317.40625 C 126.007812 317.21875 126.71875 317.132812 127.417969 317.132812 C 137.15625 317.132812 143.890625 334.378906 143.875 337.054688 M 91.28125 325.6875 C 91.28125 323.953125 91.554688 322.019531 92.234375 319.898438 C 92.238281 319.898438 92.238281 319.90625 92.238281 319.90625 C 91.558594 322.027344 91.28125 323.953125 91.28125 325.6875 " fill-opacity="1" fill-rule="nonzero"/></g><g clip-path="url(#id6)"><path fill="#ff5757" d="M 112.371094 337.304688 C 98.421875 337.304688 96.78125 337.238281 96.78125 337.238281 C 96.78125 337.238281 91.28125 333.382812 91.28125 325.6875 C 91.28125 323.953125 91.558594 322.027344 92.238281 319.90625 C 92.238281 319.90625 92.238281 319.898438 92.234375 319.898438 C 92.238281 319.894531 92.238281 319.894531 92.238281 319.886719 C 89.503906 315.003906 86.183594 303.386719 83.4375 292.492188 C 86.449219 288.675781 89.363281 285.484375 91.25 283.96875 C 97.441406 279.015625 100.335938 273.234375 100.335938 273.234375 C 100.335938 273.234375 110.195312 276.097656 124.289062 276.097656 C 125.339844 276.097656 126.410156 276.078125 127.507812 276.042969 C 125.617188 289.855469 124.070312 303.519531 124.070312 311.1875 C 124.070312 314.867188 124.425781 317.164062 125.277344 317.425781 C 126.007812 317.234375 126.71875 317.152344 127.417969 317.152344 C 137.136719 317.152344 143.859375 334.324219 143.875 337.054688 C 143.875 337.128906 143.875 337.1875 143.859375 337.238281 C 129.398438 337.285156 119.34375 337.304688 112.371094 337.304688 " fill-opacity="1" fill-rule="nonzero"/></g><g clip-path="url(#id7)"><path fill="#ff914d" d="M 275.4375 158.203125 C 275.4375 158.203125 296.5 165.019531 297.742188 179.269531 C 307.65625 185.464844 319.421875 191.660156 319.421875 191.660156 C 319.421875 191.660156 326.238281 195.378906 319.421875 204.671875 C 312.609375 213.964844 315.082031 211.179688 310.4375 214.582031 C 305.796875 217.992188 285.660156 221.089844 285.660156 221.089844 C 285.660156 221.089844 244.15625 221.089844 232.386719 231.3125 C 221.75 251.347656 200.277344 275.714844 200.277344 275.714844 C 200.277344 275.714844 182.515625 313.304688 194.496094 317.429688 C 209.359375 321.558594 208.953125 337.257812 208.953125 337.257812 L 161.871094 337.257812 C 161.871094 337.257812 156.085938 331.886719 155.671875 327.753906 C 155.257812 323.625 157.738281 320.320312 157.738281 320.320312 C 157.738281 320.320312 155.257812 296.777344 158.152344 269.929688 C 128.828125 281.496094 100.335938 273.234375 100.335938 273.234375 C 100.335938 273.234375 97.441406 279.015625 91.25 283.96875 C 85.054688 288.929688 67.710938 312.054688 72.667969 315.777344 C 91.25 325.273438 88.363281 337.257812 88.363281 337.257812 L 42.933594 337.257812 C 42.933594 337.257812 36.738281 333.949219 36.324219 328.996094 C 35.910156 324.039062 39.214844 318.25 36.324219 312.46875 C 33.429688 306.6875 26.414062 246.386719 26.414062 243.90625 C 26.414062 241.429688 28.476562 212.101562 44.585938 193.933594 C 60.691406 175.757812 90.015625 163.777344 104.46875 164.191406 C 118.917969 164.605469 165.171875 168.734375 165.171875 168.734375 C 165.171875 168.734375 170.535156 172.039062 191.191406 161.714844 C 199.867188 155.105469 216.386719 161.714844 216.386719 161.714844 C 216.386719 161.714844 229.191406 163.367188 239.925781 155.105469 C 250.667969 146.84375 259.339844 150.5625 259.339844 150.5625 C 259.339844 150.5625 264.703125 142.714844 272.136719 143.953125 C 275.691406 146.519531 275.4375 158.203125 275.4375 158.203125 " fill-opacity="1" fill-rule="nonzero"/></g><path fill="#292727" d="M 289.484375 180.714844 C 289.484375 182.996094 290.960938 184.84375 292.792969 184.84375 C 294.617188 184.84375 296.09375 182.996094 296.09375 180.714844 C 296.09375 178.429688 294.617188 176.585938 292.792969 176.585938 C 290.960938 176.585938 289.484375 178.429688 289.484375 180.714844 " fill-opacity="1" fill-rule="nonzero"/><g clip-path="url(#id8)"><path fill="#292727" d="M 314.808594 189.175781 C 314.808594 189.175781 318.628906 190.078125 320.257812 192.273438 C 321.886719 194.46875 324.894531 197.332031 319.421875 204.671875 C 311.78125 203.84375 310.957031 196.921875 310.957031 196.921875 C 310.957031 196.921875 310.402344 189.371094 314.808594 189.175781 " fill-opacity="1" fill-rule="nonzero"/></g><path fill="#ff914d" d="M 246.441406 151.296875 C 246.640625 151.214844 246.867188 151.128906 247.128906 151.039062 C 246.921875 151.117188 246.714844 151.195312 246.507812 151.277344 C 246.488281 151.285156 246.464844 151.292969 246.441406 151.296875 " fill-opacity="1" fill-rule="nonzero"/><path fill="#ff5757" d="M 256.308594 154.582031 C 252.640625 151.773438 249.90625 151.078125 248.09375 151.078125 C 247.449219 151.078125 246.921875 151.167969 246.507812 151.277344 C 246.714844 151.195312 246.921875 151.117188 247.128906 151.039062 C 248.660156 150.5 251.121094 149.847656 254.089844 149.847656 C 255.710938 149.847656 257.480469 150.046875 259.339844 150.5625 C 259.339844 150.5625 258.101562 152.214844 256.308594 154.582031 " fill-opacity="1" fill-rule="nonzero"/><path fill="#ff914d" d="M 245.421875 151.746094 C 245.488281 151.699219 245.828125 151.476562 246.441406 151.296875 C 245.9375 151.5 245.601562 151.65625 245.46875 151.722656 C 245.457031 151.730469 245.4375 151.738281 245.421875 151.746094 " fill-opacity="1" fill-rule="nonzero"/><path fill="#ff5757" d="M 245.40625 151.753906 C 245.40625 151.753906 245.414062 151.753906 245.421875 151.746094 C 245.4375 151.738281 245.457031 151.730469 245.46875 151.722656 C 245.425781 151.746094 245.40625 151.753906 245.40625 151.753906 " fill-opacity="1" fill-rule="nonzero"/><path fill="#ff5757" d="M 259.339844 163.8125 C 265.089844 160.320312 268.695312 147.78125 270.53125 147.78125 C 270.582031 147.78125 270.628906 147.785156 270.671875 147.804688 C 272.464844 148.476562 272.574219 158.773438 272.574219 158.773438 C 272.574219 158.773438 272.53125 158.769531 272.441406 158.769531 C 271.722656 158.769531 268.015625 159.035156 259.339844 163.8125 " fill-opacity="1" fill-rule="nonzero"/></svg>