<svg xmlns="http://www.w3.org/2000/svg" xmlns:xlink="http://www.w3.org/1999/xlink" width="500" zoomAndPan="magnify" viewBox="0 0 375 374.999991" height="500" preserveAspectRatio="xMidYMid meet" version="1.0"><defs><clipPath id="id1"><path d="M 112 190 L 150 190 L 150 242.824219 L 112 242.824219 Z M 112 190 " clip-rule="nonzero"/></clipPath><clipPath id="id2"><path d="M 52 189 L 87 189 L 87 242.824219 L 52 242.824219 Z M 52 189 " clip-rule="nonzero"/></clipPath><clipPath id="id3"><path d="M 123 190 L 150 190 L 150 242.824219 L 123 242.824219 Z M 123 190 " clip-rule="nonzero"/></clipPath><clipPath id="id4"><path d="M 114 190 L 150 190 L 150 242.824219 L 114 242.824219 Z M 114 190 " clip-rule="nonzero"/></clipPath><clipPath id="id5"><path d="M 59 229 L 87 229 L 87 242.824219 L 59 242.824219 Z M 59 229 " clip-rule="nonzero"/></clipPath><clipPath id="id6"><path d="M 55 210 L 87 210 L 87 242.824219 L 55 242.824219 Z M 55 210 " clip-rule="nonzero"/></clipPath><clipPath id="id7"><path d="M 26.359375 143.824219 L 177.859375 143.824219 L 177.859375 242.824219 L 26.359375 242.824219 Z M 26.359375 143.824219 " clip-rule="nonzero"/></clipPath><clipPath id="id8"><path d="M 171 167 L 177.859375 167 L 177.859375 175 L 171 175 Z M 171 167 " clip-rule="nonzero"/></clipPath></defs><g clip-path="url(#id1)"><path fill="#ff914d" d="M 130.824219 190.199219 C 130.824219 190.199219 137.6875 231.800781 140.433594 232.644531 C 146.132812 231.164062 150.148438 241.734375 149.9375 242.789062 C 127.75 242.867188 125.859375 242.789062 125.859375 242.789062 C 125.859375 242.789062 121.636719 239.828125 123.539062 233.910156 C 120.582031 228.628906 112.980469 209.398438 112.980469 209.398438 C 112.980469 209.398438 121.640625 189.808594 130.824219 190.199219 " fill-opacity="1" fill-rule="nonzero"/></g><g clip-path="url(#id2)"><path fill="#ff914d" d="M 81.511719 189.324219 C 81.511719 189.324219 74.199219 231.800781 76.949219 232.644531 C 82.648438 231.164062 86.660156 241.734375 86.449219 242.789062 C 64.265625 242.867188 62.375 242.789062 62.375 242.789062 C 62.375 242.789062 58.152344 239.828125 60.054688 233.910156 C 57.097656 228.628906 52.789062 207.921875 52.789062 207.921875 C 52.789062 207.921875 72.328125 188.929688 81.511719 189.324219 " fill-opacity="1" fill-rule="nonzero"/></g><g clip-path="url(#id3)"><path fill="#ff914d" d="M 149.941406 242.6875 C 149.9375 241.289062 146.496094 232.503906 141.527344 232.503906 C 141.167969 232.503906 140.804688 232.546875 140.433594 232.644531 C 137.699219 231.804688 130.898438 190.636719 130.824219 190.203125 L 130.828125 190.203125 C 130.949219 190.945312 137.714844 231.796875 140.433594 232.632812 C 140.804688 232.535156 141.167969 232.492188 141.527344 232.492188 C 146.507812 232.492188 149.953125 241.316406 149.941406 242.6875 M 123.046875 236.867188 C 123.042969 235.980469 123.1875 234.992188 123.535156 233.910156 C 123.539062 233.910156 123.539062 233.910156 123.539062 233.910156 C 123.191406 234.996094 123.046875 235.984375 123.046875 236.867188 " fill-opacity="1" fill-rule="nonzero"/></g><g clip-path="url(#id4)"><path fill="#ff5757" d="M 133.832031 242.8125 C 126.699219 242.8125 125.859375 242.78125 125.859375 242.78125 C 125.859375 242.78125 123.050781 240.808594 123.046875 236.867188 C 123.046875 235.984375 123.191406 234.996094 123.539062 233.910156 C 123.539062 233.910156 123.539062 233.910156 123.535156 233.910156 C 123.539062 233.90625 123.539062 233.90625 123.539062 233.902344 C 121.402344 230.089844 116.847656 219.007812 114.480469 213.140625 C 114.972656 212 115.300781 211.300781 115.300781 211.300781 C 115.300781 211.300781 125.167969 200.101562 130.824219 190.203125 C 130.898438 190.636719 137.699219 231.804688 140.433594 232.644531 C 140.804688 232.546875 141.167969 232.503906 141.527344 232.503906 C 146.496094 232.503906 149.9375 241.289062 149.941406 242.6875 C 149.941406 242.722656 149.941406 242.753906 149.9375 242.78125 C 142.539062 242.804688 137.398438 242.8125 133.832031 242.8125 " fill-opacity="1" fill-rule="nonzero"/></g><g clip-path="url(#id5)"><path fill="#ff914d" d="M 86.457031 242.6875 C 86.449219 241.289062 83.011719 232.503906 78.042969 232.503906 C 77.683594 232.503906 77.320312 232.546875 76.949219 232.644531 C 76.511719 232.507812 76.328125 231.332031 76.328125 229.453125 C 76.332031 231.328125 76.511719 232.503906 76.949219 232.632812 C 77.320312 232.535156 77.683594 232.492188 78.042969 232.492188 C 83.023438 232.492188 86.464844 241.316406 86.457031 242.6875 M 59.5625 236.871094 C 59.5625 235.984375 59.703125 234.992188 60.050781 233.910156 C 60.054688 233.910156 60.054688 233.910156 60.054688 233.910156 C 59.703125 234.996094 59.5625 235.984375 59.5625 236.871094 " fill-opacity="1" fill-rule="nonzero"/></g><g clip-path="url(#id6)"><path fill="#ff5757" d="M 70.347656 242.8125 C 63.214844 242.8125 62.375 242.78125 62.375 242.78125 C 62.375 242.78125 59.5625 240.808594 59.5625 236.871094 C 59.5625 235.984375 59.703125 234.996094 60.054688 233.910156 C 60.054688 233.910156 60.054688 233.910156 60.050781 233.910156 C 60.054688 233.90625 60.054688 233.90625 60.054688 233.902344 C 58.652344 231.40625 56.957031 225.460938 55.550781 219.886719 C 57.089844 217.933594 58.582031 216.300781 59.546875 215.527344 C 62.714844 212.992188 64.195312 210.03125 64.195312 210.03125 C 64.195312 210.03125 69.234375 211.496094 76.441406 211.496094 C 76.980469 211.496094 77.527344 211.488281 78.089844 211.46875 C 77.121094 218.535156 76.328125 225.527344 76.328125 229.453125 C 76.328125 231.332031 76.511719 232.507812 76.949219 232.644531 C 77.320312 232.546875 77.683594 232.503906 78.042969 232.503906 C 83.011719 232.503906 86.449219 241.289062 86.457031 242.6875 C 86.457031 242.722656 86.457031 242.753906 86.449219 242.78125 C 79.054688 242.804688 73.914062 242.8125 70.347656 242.8125 " fill-opacity="1" fill-rule="nonzero"/></g><g clip-path="url(#id7)"><path fill="#ff914d" d="M 153.734375 151.179688 C 153.734375 151.179688 164.503906 154.667969 165.140625 161.957031 C 170.210938 165.128906 176.226562 168.296875 176.226562 168.296875 C 176.226562 168.296875 179.710938 170.199219 176.226562 174.957031 C 172.742188 179.707031 174.007812 178.285156 171.632812 180.027344 C 169.257812 181.769531 158.964844 183.355469 158.964844 183.355469 C 158.964844 183.355469 137.738281 183.355469 131.71875 188.585938 C 126.28125 198.835938 115.300781 211.300781 115.300781 211.300781 C 115.300781 211.300781 106.21875 230.535156 112.34375 232.644531 C 119.945312 234.757812 119.738281 242.789062 119.738281 242.789062 L 95.660156 242.789062 C 95.660156 242.789062 92.703125 240.042969 92.492188 237.925781 C 92.277344 235.816406 93.546875 234.125 93.546875 234.125 C 93.546875 234.125 92.277344 222.078125 93.757812 208.34375 C 78.761719 214.257812 64.195312 210.03125 64.195312 210.03125 C 64.195312 210.03125 62.714844 212.992188 59.546875 215.527344 C 56.378906 218.0625 47.507812 229.894531 50.042969 231.800781 C 59.546875 236.660156 58.070312 242.789062 58.070312 242.789062 L 34.839844 242.789062 C 34.839844 242.789062 31.671875 241.097656 31.460938 238.5625 C 31.25 236.027344 32.9375 233.066406 31.460938 230.109375 C 29.980469 227.148438 26.390625 196.296875 26.390625 195.027344 C 26.390625 193.761719 27.449219 178.757812 35.683594 169.460938 C 43.921875 160.160156 58.914062 154.03125 66.308594 154.246094 C 73.695312 154.457031 97.347656 156.570312 97.347656 156.570312 C 97.347656 156.570312 100.089844 158.261719 110.652344 152.976562 C 115.089844 149.597656 123.539062 152.976562 123.539062 152.976562 C 123.539062 152.976562 130.085938 153.820312 135.574219 149.597656 C 141.066406 145.367188 145.503906 147.269531 145.503906 147.269531 C 145.503906 147.269531 148.246094 143.253906 152.046875 143.890625 C 153.863281 145.203125 153.734375 151.179688 153.734375 151.179688 " fill-opacity="1" fill-rule="nonzero"/></g><path fill="#292727" d="M 160.917969 162.699219 C 160.917969 163.863281 161.671875 164.808594 162.609375 164.808594 C 163.542969 164.808594 164.296875 163.863281 164.296875 162.699219 C 164.296875 161.53125 163.542969 160.585938 162.609375 160.585938 C 161.671875 160.585938 160.917969 161.53125 160.917969 162.699219 " fill-opacity="1" fill-rule="nonzero"/><g clip-path="url(#id8)"><path fill="#292727" d="M 173.867188 167.027344 C 173.867188 167.027344 175.820312 167.488281 176.652344 168.613281 C 177.488281 169.734375 179.023438 171.199219 176.226562 174.957031 C 172.320312 174.53125 171.898438 170.988281 171.898438 170.988281 C 171.898438 170.988281 171.613281 167.128906 173.867188 167.027344 " fill-opacity="1" fill-rule="nonzero"/></g><path fill="#ff914d" d="M 138.90625 147.648438 C 139.007812 147.605469 139.125 147.5625 139.257812 147.515625 C 139.152344 147.554688 139.046875 147.59375 138.941406 147.636719 C 138.933594 147.640625 138.917969 147.644531 138.90625 147.648438 " fill-opacity="1" fill-rule="nonzero"/><path fill="#ff5757" d="M 143.953125 149.328125 C 142.078125 147.890625 140.679688 147.535156 139.753906 147.535156 C 139.421875 147.535156 139.152344 147.578125 138.941406 147.636719 C 139.046875 147.59375 139.152344 147.554688 139.257812 147.515625 C 140.042969 147.238281 141.300781 146.90625 142.816406 146.90625 C 143.648438 146.90625 144.550781 147.007812 145.503906 147.269531 C 145.503906 147.269531 144.867188 148.117188 143.953125 149.328125 " fill-opacity="1" fill-rule="nonzero"/><path fill="#ff914d" d="M 138.382812 147.878906 C 138.417969 147.851562 138.59375 147.738281 138.90625 147.648438 C 138.648438 147.75 138.476562 147.832031 138.410156 147.867188 C 138.402344 147.871094 138.394531 147.871094 138.382812 147.878906 " fill-opacity="1" fill-rule="nonzero"/><path fill="#ff5757" d="M 138.378906 147.882812 C 138.378906 147.882812 138.382812 147.878906 138.382812 147.878906 C 138.394531 147.871094 138.402344 147.871094 138.410156 147.867188 C 138.386719 147.875 138.378906 147.882812 138.378906 147.882812 " fill-opacity="1" fill-rule="nonzero"/><path fill="#ff5757" d="M 145.503906 154.050781 C 148.445312 152.261719 150.285156 145.847656 151.226562 145.847656 C 151.25 145.847656 151.277344 145.851562 151.296875 145.859375 C 152.214844 146.203125 152.269531 151.472656 152.269531 151.472656 C 152.269531 151.472656 152.25 151.46875 152.203125 151.46875 C 151.835938 151.46875 149.9375 151.605469 145.503906 154.050781 " fill-opacity="1" fill-rule="nonzero"/></svg>