<svg xmlns="http://www.w3.org/2000/svg" xmlns:xlink="http://www.w3.org/1999/xlink" width="500" zoomAndPan="magnify" viewBox="0 0 375 374.999991" height="500" preserveAspectRatio="xMidYMid meet" version="1.0"><defs><g/><clipPath id="id1"><path d="M 58 161 L 73 161 L 73 181.324219 L 58 181.324219 Z M 58 161 " clip-rule="nonzero"/></clipPath><clipPath id="id2"><path d="M 36 161 L 49 161 L 49 181.324219 L 36 181.324219 Z M 36 161 " clip-rule="nonzero"/></clipPath><clipPath id="id3"><path d="M 62 161 L 73 161 L 73 181.324219 L 62 181.324219 Z M 62 161 " clip-rule="nonzero"/></clipPath><clipPath id="id4"><path d="M 59 161 L 73 161 L 73 181.324219 L 59 181.324219 Z M 59 161 " clip-rule="nonzero"/></clipPath><clipPath id="id5"><path d="M 38 176 L 49 176 L 49 181.324219 L 38 181.324219 Z M 38 176 " clip-rule="nonzero"/></clipPath><clipPath id="id6"><path d="M 37 168 L 49 168 L 49 181.324219 L 37 181.324219 Z M 37 168 " clip-rule="nonzero"/></clipPath><clipPath id="id7"><path d="M 26.359375 143.824219 L 83.359375 143.824219 L 83.359375 181.324219 L 26.359375 181.324219 Z M 26.359375 143.824219 " clip-rule="nonzero"/></clipPath><clipPath id="id8"><path d="M 81 152 L 83.359375 152 L 83.359375 156 L 81 156 Z M 81 152 " clip-rule="nonzero"/></clipPath></defs><g fill="#000000" fill-opacity="1"><g transform="translate(102.845658, 164.846195)"><g><path d="M 11.976562 -15.144531 C 13.152344 -17.160156 10.03125 -18.960938 8.878906 -16.96875 C 8.113281 -15.671875 7.03125 -13.632812 5.617188 -12.792969 C 5.6875 -14.351562 5.734375 -15.886719 5.734375 -17.449219 C 5.761719 -19.777344 2.160156 -19.777344 2.136719 -17.449219 C 2.113281 -12.863281 1.824219 -8.28125 1.222656 -3.742188 C 1.078125 -2.785156 1.441406 -1.824219 2.472656 -1.535156 C 3.3125 -1.296875 4.558594 -1.824219 4.679688 -2.785156 C 4.96875 -4.800781 5.183594 -6.792969 5.351562 -8.808594 C 6.601562 -7.65625 7.390625 -6.070312 7.535156 -4.367188 C 7.753906 -2.089844 11.351562 -2.0625 11.136719 -4.367188 C 10.921875 -6.769531 10.03125 -8.878906 8.542969 -10.609375 C 9.960938 -11.855469 11.039062 -13.535156 11.976562 -15.144531 Z M 11.976562 -15.144531 "/></g></g></g><g fill="#000000" fill-opacity="1"><g transform="translate(116.28569, 164.846195)"><g><path d="M 2.28125 -14.785156 C 1.800781 -10.464844 1.441406 -6.121094 1.199219 -1.777344 C 1.054688 0.550781 4.65625 0.527344 4.800781 -1.777344 C 5.039062 -6.121094 5.398438 -10.464844 5.878906 -14.785156 C 6.121094 -17.089844 2.519531 -17.089844 2.28125 -14.785156 Z M 2.28125 -14.785156 "/></g></g></g><g fill="#000000" fill-opacity="1"><g transform="translate(123.389701, 164.846195)"><g><path d="M 5.183594 -17.207031 C 4.992188 -17.230469 4.777344 -17.28125 4.585938 -17.304688 C 3.433594 -17.496094 1.921875 -17.519531 1.824219 -16.03125 C 1.511719 -11.6875 1.320312 -7.320312 1.199219 -2.953125 C 1.175781 -2.183594 1.824219 -1.464844 2.566406 -1.367188 C 3.121094 -1.296875 3.695312 -1.441406 4.246094 -1.632812 C 6.167969 -2.257812 8.496094 -3 10.054688 -4.34375 C 11.472656 -5.542969 12.527344 -7.199219 12.742188 -9.046875 C 13.007812 -11.28125 12 -13.390625 10.367188 -14.878906 C 8.878906 -16.222656 7.105469 -16.824219 5.183594 -17.207031 Z M 9.023438 -8.832031 C 8.351562 -6.960938 6.625 -6.265625 4.847656 -5.6875 C 4.945312 -8.28125 5.089844 -10.894531 5.230469 -13.511719 C 7.464844 -13.03125 9.960938 -11.449219 9.023438 -8.832031 Z M 9.023438 -8.832031 "/></g></g></g><g fill="#000000" fill-opacity="1"><g transform="translate(137.405726, 164.846195)"><g><path d="M 8.929688 -10.390625 C 8.304688 -10.824219 6.863281 -11.207031 6.574219 -11.953125 C 6.144531 -13.128906 7.753906 -13.96875 8.566406 -14.351562 C 10.65625 -15.335938 8.832031 -18.433594 6.742188 -17.449219 C 3.527344 -15.9375 1.296875 -11.664062 4.511719 -8.878906 C 5.640625 -7.894531 7.871094 -7.511719 8.113281 -5.734375 C 8.207031 -4.992188 7.847656 -4.296875 7.175781 -4.007812 C 6.71875 -3.816406 5.039062 -3.550781 4.65625 -4.078125 C 3.265625 -5.902344 0.144531 -4.105469 1.535156 -2.257812 C 4.367188 1.488281 11.136719 -0.0976562 11.664062 -4.894531 C 11.902344 -7.105469 10.753906 -9.191406 8.929688 -10.390625 Z M 8.929688 -10.390625 "/></g></g></g><g fill="#000000" fill-opacity="1"><g transform="translate(150.317751, 164.846195)"><g/></g></g><g fill="#000000" fill-opacity="1"><g transform="translate(157.613771, 164.846195)"><g><path d="M 12.40625 -10.511719 C 12.335938 -12.601562 12.289062 -18.070312 8.734375 -16.558594 C 6.433594 -15.574219 4.679688 -12.574219 3.695312 -10.414062 C 2.398438 -7.488281 1.777344 -4.390625 1.222656 -1.273438 C 0.816406 1.007812 4.273438 1.96875 4.679688 -0.3125 C 4.894531 -1.511719 5.113281 -2.734375 5.375 -3.9375 L 8.976562 -3.792969 C 9.023438 -2.832031 9.046875 -1.871094 9.070312 -0.9375 C 9.121094 1.390625 12.71875 1.390625 12.648438 -0.9375 C 12.574219 -4.128906 12.527344 -7.320312 12.40625 -10.511719 Z M 6.527344 -7.894531 C 6.9375 -8.953125 7.464844 -10.007812 8.089844 -10.945312 C 8.304688 -11.28125 8.542969 -11.59375 8.785156 -11.878906 C 8.808594 -11.398438 8.785156 -10.921875 8.808594 -10.511719 C 8.855469 -9.480469 8.878906 -8.449219 8.902344 -7.390625 C 8.0625 -7.414062 7.222656 -7.464844 6.382812 -7.488281 C 6.433594 -7.632812 6.480469 -7.753906 6.527344 -7.894531 Z M 6.527344 -7.894531 "/></g></g></g><g fill="#000000" fill-opacity="1"><g transform="translate(171.485795, 164.846195)"><g><path d="M 10.558594 -14.566406 C 10.175781 -11.976562 9.71875 -9.382812 9.238281 -6.816406 L 7.105469 -11.710938 C 6.480469 -13.175781 4.199219 -12.648438 3.816406 -11.28125 C 2.808594 -7.535156 1.945312 -3.742188 1.222656 0.046875 C 0.792969 2.328125 4.273438 3.289062 4.703125 1.007812 C 5.089844 -1.078125 5.542969 -3.167969 6.023438 -5.257812 C 6.792969 -3.503906 7.535156 -1.777344 8.304688 -0.0234375 C 8.929688 1.414062 11.28125 0.984375 11.59375 -0.457031 C 12.550781 -4.800781 13.367188 -9.191406 14.015625 -13.609375 C 14.351562 -15.863281 10.871094 -16.847656 10.558594 -14.566406 Z M 10.558594 -14.566406 "/></g></g></g><g fill="#000000" fill-opacity="1"><g transform="translate(186.749821, 164.846195)"><g><path d="M 5.183594 -17.207031 C 4.992188 -17.230469 4.777344 -17.28125 4.585938 -17.304688 C 3.433594 -17.496094 1.921875 -17.519531 1.824219 -16.03125 C 1.511719 -11.6875 1.320312 -7.320312 1.199219 -2.953125 C 1.175781 -2.183594 1.824219 -1.464844 2.566406 -1.367188 C 3.121094 -1.296875 3.695312 -1.441406 4.246094 -1.632812 C 6.167969 -2.257812 8.496094 -3 10.054688 -4.34375 C 11.472656 -5.542969 12.527344 -7.199219 12.742188 -9.046875 C 13.007812 -11.28125 12 -13.390625 10.367188 -14.878906 C 8.878906 -16.222656 7.105469 -16.824219 5.183594 -17.207031 Z M 9.023438 -8.832031 C 8.351562 -6.960938 6.625 -6.265625 4.847656 -5.6875 C 4.945312 -8.28125 5.089844 -10.894531 5.230469 -13.511719 C 7.464844 -13.03125 9.960938 -11.449219 9.023438 -8.832031 Z M 9.023438 -8.832031 "/></g></g></g><g fill="#000000" fill-opacity="1"><g transform="translate(200.765845, 164.846195)"><g/></g></g><g fill="#000000" fill-opacity="1"><g transform="translate(208.061865, 164.846195)"><g><path d="M 10.65625 -5.785156 C 8.304688 -5.113281 4.199219 -4.894531 4.847656 -8.542969 C 5.28125 -11.015625 7.585938 -13.007812 10.105469 -12.816406 C 12.40625 -12.625 12.40625 -16.222656 10.105469 -16.414062 C 5.519531 -16.777344 1.414062 -12.625 1.199219 -8.136719 C 1.078125 -5.855469 2.160156 -3.742188 4.175781 -2.59375 C 6.480469 -1.296875 9.191406 -1.632812 11.617188 -2.304688 C 13.847656 -2.953125 12.910156 -6.40625 10.65625 -5.785156 Z M 10.65625 -5.785156 "/></g></g></g><g fill="#000000" fill-opacity="1"><g transform="translate(222.173894, 164.846195)"><g><path d="M 14.015625 -13.65625 C 13.726562 -15.910156 10.128906 -15.9375 10.414062 -13.65625 C 10.753906 -11.015625 10.367188 -6.625 7.558594 -5.28125 C 4.535156 -3.839844 4.753906 -12.457031 4.847656 -13.894531 C 5.015625 -16.199219 1.414062 -16.175781 1.246094 -13.894531 C 0.960938 -9.839844 1.390625 -0.503906 7.703125 -1.585938 C 12.816406 -2.449219 14.566406 -9.335938 14.015625 -13.65625 Z M 14.015625 -13.65625 "/></g></g></g><g fill="#000000" fill-opacity="1"><g transform="translate(237.485928, 164.846195)"><g><path d="M 14.734375 -13.128906 C 13.871094 -17.160156 8.015625 -18.648438 4.65625 -17.398438 C 4.585938 -17.375 4.535156 -17.351562 4.488281 -17.328125 C 3.671875 -17.398438 2.640625 -16.894531 2.519531 -16.03125 C 2.0625 -12.550781 1.296875 -8.953125 1.199219 -5.449219 C 1.105469 -2.230469 3.792969 -0.625 6.769531 -0.960938 C 9.574219 -1.296875 12.527344 -3.527344 12.480469 -6.574219 C 12.457031 -7.390625 12.238281 -8.089844 11.878906 -8.640625 C 13.777344 -9.550781 15.191406 -10.992188 14.734375 -13.128906 Z M 8.617188 -14.089844 C 9 -13.96875 11.230469 -13.199219 11.160156 -12.527344 C 11.136719 -12.167969 9.574219 -11.617188 9.167969 -11.472656 C 8.183594 -11.113281 7.199219 -10.96875 6.167969 -10.945312 C 6.046875 -10.945312 5.902344 -10.945312 5.785156 -10.945312 C 5.664062 -10.945312 5.566406 -10.945312 5.449219 -10.921875 C 5.59375 -11.953125 5.734375 -12.984375 5.855469 -14.015625 C 6.792969 -14.328125 7.65625 -14.351562 8.617188 -14.089844 Z M 8.375 -5.519531 C 7.800781 -4.871094 5.710938 -3.886719 4.921875 -4.703125 C 4.609375 -5.015625 4.824219 -5.832031 4.871094 -6.265625 C 4.894531 -6.695312 4.96875 -7.105469 5.015625 -7.511719 C 5.230469 -7.414062 5.496094 -7.367188 5.785156 -7.34375 C 5.902344 -7.34375 6.023438 -7.34375 6.144531 -7.34375 C 7.441406 -7.34375 9.839844 -7.128906 8.375 -5.519531 Z M 8.375 -5.519531 "/></g></g></g><g fill="#000000" fill-opacity="1"><g transform="translate(253.517955, 164.846195)"><g><path d="M 8.929688 -10.390625 C 8.304688 -10.824219 6.863281 -11.207031 6.574219 -11.953125 C 6.144531 -13.128906 7.753906 -13.96875 8.566406 -14.351562 C 10.65625 -15.335938 8.832031 -18.433594 6.742188 -17.449219 C 3.527344 -15.9375 1.296875 -11.664062 4.511719 -8.878906 C 5.640625 -7.894531 7.871094 -7.511719 8.113281 -5.734375 C 8.207031 -4.992188 7.847656 -4.296875 7.175781 -4.007812 C 6.71875 -3.816406 5.039062 -3.550781 4.65625 -4.078125 C 3.265625 -5.902344 0.144531 -4.105469 1.535156 -2.257812 C 4.367188 1.488281 11.136719 -0.0976562 11.664062 -4.894531 C 11.902344 -7.105469 10.753906 -9.191406 8.929688 -10.390625 Z M 8.929688 -10.390625 "/></g></g></g><g fill="#000000" fill-opacity="1"><g transform="translate(266.42998, 164.846195)"><g/></g></g><g fill="#000000" fill-opacity="1"><g transform="translate(273.726, 164.846195)"><g><path d="M 10.65625 -5.785156 C 8.304688 -5.113281 4.199219 -4.894531 4.847656 -8.542969 C 5.28125 -11.015625 7.585938 -13.007812 10.105469 -12.816406 C 12.40625 -12.625 12.40625 -16.222656 10.105469 -16.414062 C 5.519531 -16.777344 1.414062 -12.625 1.199219 -8.136719 C 1.078125 -5.855469 2.160156 -3.742188 4.175781 -2.59375 C 6.480469 -1.296875 9.191406 -1.632812 11.617188 -2.304688 C 13.847656 -2.953125 12.910156 -6.40625 10.65625 -5.785156 Z M 10.65625 -5.785156 "/></g></g></g><g fill="#000000" fill-opacity="1"><g transform="translate(287.838029, 164.846195)"><g><path d="M 10.558594 -5.976562 C 8.6875 -5.832031 6.839844 -5.566406 5.015625 -5.183594 C 5.328125 -8.136719 5.617188 -11.089844 5.902344 -14.039062 C 6.121094 -16.34375 2.519531 -16.34375 2.304688 -14.039062 C 1.945312 -10.296875 1.558594 -6.550781 1.199219 -2.808594 C 1.078125 -1.632812 2.449219 -0.792969 3.480469 -1.078125 C 5.808594 -1.753906 8.160156 -2.183594 10.558594 -2.375 C 12.863281 -2.542969 12.886719 -6.144531 10.558594 -5.976562 Z M 10.558594 -5.976562 "/></g></g></g><g fill="#000000" fill-opacity="1"><g transform="translate(301.350056, 164.846195)"><g><path d="M 2.28125 -14.785156 C 1.800781 -10.464844 1.441406 -6.121094 1.199219 -1.777344 C 1.054688 0.550781 4.65625 0.527344 4.800781 -1.777344 C 5.039062 -6.121094 5.398438 -10.464844 5.878906 -14.785156 C 6.121094 -17.089844 2.519531 -17.089844 2.28125 -14.785156 Z M 2.28125 -14.785156 "/></g></g></g><g fill="#000000" fill-opacity="1"><g transform="translate(308.454067, 164.846195)"><g><path d="M 10.558594 -14.566406 C 10.175781 -11.976562 9.71875 -9.382812 9.238281 -6.816406 L 7.105469 -11.710938 C 6.480469 -13.175781 4.199219 -12.648438 3.816406 -11.28125 C 2.808594 -7.535156 1.945312 -3.742188 1.222656 0.046875 C 0.792969 2.328125 4.273438 3.289062 4.703125 1.007812 C 5.089844 -1.078125 5.542969 -3.167969 6.023438 -5.257812 C 6.792969 -3.503906 7.535156 -1.777344 8.304688 -0.0234375 C 8.929688 1.414062 11.28125 0.984375 11.59375 -0.457031 C 12.550781 -4.800781 13.367188 -9.191406 14.015625 -13.609375 C 14.351562 -15.863281 10.871094 -16.847656 10.558594 -14.566406 Z M 10.558594 -14.566406 "/></g></g></g><g fill="#000000" fill-opacity="1"><g transform="translate(323.718081, 164.846195)"><g><path d="M 2.28125 -14.785156 C 1.800781 -10.464844 1.441406 -6.121094 1.199219 -1.777344 C 1.054688 0.550781 4.65625 0.527344 4.800781 -1.777344 C 5.039062 -6.121094 5.398438 -10.464844 5.878906 -14.785156 C 6.121094 -17.089844 2.519531 -17.089844 2.28125 -14.785156 Z M 2.28125 -14.785156 "/></g></g></g><g fill="#000000" fill-opacity="1"><g transform="translate(330.822092, 164.846195)"><g><path d="M 10.65625 -5.785156 C 8.304688 -5.113281 4.199219 -4.894531 4.847656 -8.542969 C 5.28125 -11.015625 7.585938 -13.007812 10.105469 -12.816406 C 12.40625 -12.625 12.40625 -16.222656 10.105469 -16.414062 C 5.519531 -16.777344 1.414062 -12.625 1.199219 -8.136719 C 1.078125 -5.855469 2.160156 -3.742188 4.175781 -2.59375 C 6.480469 -1.296875 9.191406 -1.632812 11.617188 -2.304688 C 13.847656 -2.953125 12.910156 -6.40625 10.65625 -5.785156 Z M 10.65625 -5.785156 "/></g></g></g><g clip-path="url(#id1)"><path fill="#ffbd59" d="M 65.664062 161.390625 C 65.664062 161.390625 68.246094 177.148438 69.277344 177.46875 C 71.425781 176.90625 72.933594 180.910156 72.855469 181.308594 C 64.507812 181.339844 63.796875 181.308594 63.796875 181.308594 C 63.796875 181.308594 62.207031 180.1875 62.921875 177.949219 C 61.8125 175.945312 58.949219 168.664062 58.949219 168.664062 C 58.949219 168.664062 62.207031 161.242188 65.664062 161.390625 " fill-opacity="1" fill-rule="nonzero"/></g><g clip-path="url(#id2)"><path fill="#ffbd59" d="M 47.109375 161.058594 C 47.109375 161.058594 44.359375 177.148438 45.394531 177.46875 C 47.539062 176.90625 49.050781 180.910156 48.96875 181.308594 C 40.621094 181.339844 39.910156 181.308594 39.910156 181.308594 C 39.910156 181.308594 38.324219 180.1875 39.039062 177.949219 C 37.925781 175.945312 36.304688 168.101562 36.304688 168.101562 C 36.304688 168.101562 43.65625 160.910156 47.109375 161.058594 " fill-opacity="1" fill-rule="nonzero"/></g><g clip-path="url(#id3)"><path fill="#ff914d" d="M 72.855469 181.269531 C 72.855469 180.742188 71.5625 177.414062 69.691406 177.414062 C 69.554688 177.414062 69.417969 177.429688 69.277344 177.46875 C 68.25 177.148438 65.691406 161.554688 65.664062 161.390625 C 65.710938 161.671875 68.253906 177.144531 69.277344 177.464844 C 69.417969 177.425781 69.554688 177.410156 69.691406 177.410156 C 71.5625 177.410156 72.859375 180.753906 72.855469 181.269531 M 62.738281 179.066406 C 62.738281 178.730469 62.789062 178.359375 62.921875 177.945312 C 62.921875 177.945312 62.921875 177.949219 62.921875 177.949219 C 62.792969 178.359375 62.738281 178.730469 62.738281 179.066406 " fill-opacity="1" fill-rule="nonzero"/></g><g clip-path="url(#id4)"><path fill="#ff914d" d="M 66.796875 181.320312 C 64.113281 181.320312 63.796875 181.308594 63.796875 181.308594 C 63.796875 181.308594 62.738281 180.558594 62.738281 179.066406 C 62.738281 178.730469 62.792969 178.359375 62.921875 177.949219 C 62.921875 177.949219 62.921875 177.945312 62.921875 177.945312 C 62.121094 176.5 60.40625 172.304688 59.515625 170.078125 C 59.699219 169.648438 59.824219 169.382812 59.824219 169.382812 C 59.824219 169.382812 63.535156 165.140625 65.664062 161.390625 C 65.691406 161.554688 68.25 177.148438 69.277344 177.46875 C 69.417969 177.429688 69.554688 177.414062 69.691406 177.414062 C 71.5625 177.414062 72.855469 180.742188 72.855469 181.269531 C 72.855469 181.285156 72.855469 181.296875 72.855469 181.308594 C 70.070312 181.316406 68.136719 181.320312 66.796875 181.320312 " fill-opacity="1" fill-rule="nonzero"/></g><g clip-path="url(#id5)"><path fill="#ff914d" d="M 48.972656 181.269531 C 48.96875 180.742188 47.675781 177.414062 45.804688 177.414062 C 45.671875 177.414062 45.535156 177.429688 45.394531 177.46875 C 45.230469 177.417969 45.160156 176.972656 45.160156 176.257812 C 45.164062 176.96875 45.230469 177.414062 45.394531 177.464844 C 45.535156 177.425781 45.671875 177.410156 45.804688 177.410156 C 47.679688 177.410156 48.976562 180.753906 48.972656 181.269531 M 38.851562 179.066406 C 38.851562 178.730469 38.90625 178.359375 39.035156 177.945312 C 39.039062 177.945312 39.039062 177.949219 39.039062 177.949219 C 38.90625 178.359375 38.851562 178.730469 38.851562 179.066406 " fill-opacity="1" fill-rule="nonzero"/></g><g clip-path="url(#id6)"><path fill="#ff914d" d="M 42.910156 181.320312 C 40.226562 181.320312 39.910156 181.308594 39.910156 181.308594 C 39.910156 181.308594 38.851562 180.558594 38.851562 179.066406 C 38.851562 178.730469 38.90625 178.359375 39.039062 177.949219 C 39.039062 177.949219 39.039062 177.945312 39.035156 177.945312 C 39.039062 177.945312 39.039062 177.945312 39.039062 177.945312 C 38.511719 176.996094 37.871094 174.746094 37.34375 172.636719 C 37.921875 171.894531 38.484375 171.277344 38.847656 170.984375 C 40.039062 170.023438 40.59375 168.902344 40.59375 168.902344 C 40.59375 168.902344 42.492188 169.457031 45.203125 169.457031 C 45.40625 169.457031 45.613281 169.453125 45.824219 169.445312 C 45.460938 172.125 45.160156 174.773438 45.160156 176.257812 C 45.160156 176.972656 45.230469 177.417969 45.394531 177.46875 C 45.535156 177.429688 45.671875 177.414062 45.804688 177.414062 C 47.675781 177.414062 48.96875 180.742188 48.972656 181.269531 C 48.972656 181.285156 48.972656 181.296875 48.96875 181.308594 C 46.1875 181.316406 44.253906 181.320312 42.910156 181.320312 " fill-opacity="1" fill-rule="nonzero"/></g><g clip-path="url(#id7)"><path fill="#ffbd59" d="M 74.285156 146.609375 C 74.285156 146.609375 78.335938 147.929688 78.574219 150.691406 C 80.480469 151.894531 82.746094 153.09375 82.746094 153.09375 C 82.746094 153.09375 84.058594 153.816406 82.746094 155.617188 C 81.433594 157.417969 81.910156 156.875 81.015625 157.535156 C 80.125 158.199219 76.25 158.796875 76.25 158.796875 C 76.25 158.796875 68.265625 158.796875 66 160.777344 C 63.953125 164.660156 59.824219 169.382812 59.824219 169.382812 C 59.824219 169.382812 56.40625 176.667969 58.710938 177.46875 C 61.570312 178.269531 61.492188 181.308594 61.492188 181.308594 L 52.433594 181.308594 C 52.433594 181.308594 51.320312 180.269531 51.242188 179.46875 C 51.164062 178.667969 51.640625 178.027344 51.640625 178.027344 C 51.640625 178.027344 51.164062 173.464844 51.71875 168.261719 C 46.078125 170.503906 40.59375 168.902344 40.59375 168.902344 C 40.59375 168.902344 40.039062 170.023438 38.847656 170.984375 C 37.65625 171.945312 34.320312 176.425781 35.273438 177.148438 C 38.847656 178.988281 38.292969 181.308594 38.292969 181.308594 L 29.550781 181.308594 C 29.550781 181.308594 28.359375 180.667969 28.28125 179.710938 C 28.199219 178.75 28.835938 177.628906 28.28125 176.507812 C 27.722656 175.386719 26.375 163.699219 26.375 163.21875 C 26.375 162.738281 26.769531 157.054688 29.871094 153.535156 C 32.96875 150.011719 38.609375 147.691406 41.390625 147.769531 C 44.171875 147.851562 53.070312 148.652344 53.070312 148.652344 C 53.070312 148.652344 54.101562 149.292969 58.074219 147.289062 C 59.742188 146.011719 62.921875 147.289062 62.921875 147.289062 C 62.921875 147.289062 65.386719 147.609375 67.449219 146.011719 C 69.519531 144.410156 71.1875 145.128906 71.1875 145.128906 C 71.1875 145.128906 72.21875 143.609375 73.648438 143.847656 C 74.332031 144.34375 74.285156 146.609375 74.285156 146.609375 " fill-opacity="1" fill-rule="nonzero"/></g><path fill="#292727" d="M 76.984375 150.972656 C 76.984375 151.414062 77.269531 151.773438 77.621094 151.773438 C 77.972656 151.773438 78.257812 151.414062 78.257812 150.972656 C 78.257812 150.53125 77.972656 150.171875 77.621094 150.171875 C 77.269531 150.171875 76.984375 150.53125 76.984375 150.972656 " fill-opacity="1" fill-rule="nonzero"/><g clip-path="url(#id8)"><path fill="#292727" d="M 81.859375 152.613281 C 81.859375 152.613281 82.59375 152.789062 82.90625 153.214844 C 83.21875 153.636719 83.796875 154.191406 82.746094 155.617188 C 81.277344 155.457031 81.117188 154.113281 81.117188 154.113281 C 81.117188 154.113281 81.011719 152.652344 81.859375 152.613281 " fill-opacity="1" fill-rule="nonzero"/></g><path fill="#ff914d" d="M 68.703125 145.273438 C 68.742188 145.257812 68.785156 145.238281 68.835938 145.222656 C 68.796875 145.238281 68.757812 145.25 68.71875 145.269531 C 68.714844 145.269531 68.710938 145.269531 68.703125 145.273438 " fill-opacity="1" fill-rule="nonzero"/><path fill="#ff914d" d="M 70.601562 145.90625 C 69.898438 145.363281 69.371094 145.230469 69.023438 145.230469 C 68.898438 145.230469 68.796875 145.246094 68.71875 145.269531 C 68.757812 145.25 68.796875 145.238281 68.835938 145.222656 C 69.132812 145.117188 69.605469 144.992188 70.175781 144.992188 C 70.488281 144.992188 70.828125 145.027344 71.1875 145.128906 C 71.1875 145.128906 70.949219 145.449219 70.601562 145.90625 " fill-opacity="1" fill-rule="nonzero"/><path fill="#ff914d" d="M 68.507812 145.359375 C 68.519531 145.351562 68.585938 145.304688 68.703125 145.273438 C 68.609375 145.3125 68.542969 145.339844 68.519531 145.355469 C 68.515625 145.355469 68.511719 145.355469 68.507812 145.359375 " fill-opacity="1" fill-rule="nonzero"/><path fill="#ff914d" d="M 68.507812 145.359375 C 68.511719 145.355469 68.515625 145.355469 68.519531 145.355469 C 68.507812 145.359375 68.507812 145.359375 68.507812 145.359375 " fill-opacity="1" fill-rule="nonzero"/><path fill="#ff914d" d="M 71.1875 147.695312 C 72.292969 147.019531 72.988281 144.589844 73.339844 144.589844 C 73.347656 144.589844 73.359375 144.589844 73.367188 144.59375 C 73.710938 144.726562 73.734375 146.722656 73.734375 146.722656 C 73.734375 146.722656 73.722656 146.71875 73.707031 146.71875 C 73.570312 146.71875 72.855469 146.769531 71.1875 147.695312 " fill-opacity="1" fill-rule="nonzero"/><g fill="#000000" fill-opacity="1"><g transform="translate(161.993417, 179.101367)"><g><path d="M 2.46875 0.0625 C 1.125 0.0625 0.382812 -0.550781 0.25 -1.78125 L 0.859375 -1.875 C 0.953125 -1.382812 1.125 -1.035156 1.375 -0.828125 C 1.632812 -0.617188 2.007812 -0.515625 2.5 -0.515625 C 2.925781 -0.515625 3.253906 -0.609375 3.484375 -0.796875 C 3.722656 -0.984375 3.84375 -1.242188 3.84375 -1.578125 C 3.84375 -1.796875 3.789062 -1.96875 3.6875 -2.09375 C 3.59375 -2.226562 3.441406 -2.335938 3.234375 -2.421875 C 3.035156 -2.503906 2.785156 -2.578125 2.484375 -2.640625 C 2.109375 -2.722656 1.78125 -2.820312 1.5 -2.9375 C 1.226562 -3.0625 1.015625 -3.234375 0.859375 -3.453125 C 0.703125 -3.679688 0.625 -3.988281 0.625 -4.375 C 0.625 -4.707031 0.707031 -5.003906 0.875 -5.265625 C 1.039062 -5.535156 1.269531 -5.742188 1.5625 -5.890625 C 1.851562 -6.046875 2.1875 -6.125 2.5625 -6.125 C 3.082031 -6.125 3.507812 -5.976562 3.84375 -5.6875 C 4.175781 -5.40625 4.375 -5.015625 4.4375 -4.515625 L 3.875 -4.40625 C 3.789062 -4.800781 3.640625 -5.085938 3.421875 -5.265625 C 3.210938 -5.453125 2.921875 -5.546875 2.546875 -5.546875 C 2.160156 -5.546875 1.851562 -5.441406 1.625 -5.234375 C 1.394531 -5.023438 1.28125 -4.75 1.28125 -4.40625 C 1.28125 -4.03125 1.398438 -3.757812 1.640625 -3.59375 C 1.878906 -3.4375 2.242188 -3.304688 2.734375 -3.203125 C 3.109375 -3.117188 3.425781 -3.019531 3.6875 -2.90625 C 3.945312 -2.789062 4.144531 -2.628906 4.28125 -2.421875 C 4.425781 -2.210938 4.5 -1.9375 4.5 -1.59375 C 4.5 -1.257812 4.410156 -0.96875 4.234375 -0.71875 C 4.066406 -0.46875 3.828125 -0.273438 3.515625 -0.140625 C 3.210938 -0.00390625 2.863281 0.0625 2.46875 0.0625 Z M 2.46875 0.0625 "/></g></g></g><g fill="#000000" fill-opacity="1"><g transform="translate(169.282882, 179.101367)"><g><path d="M 1.34375 0 L 0.703125 0 L 0.703125 -6.03125 L 2.65625 -6.03125 C 3.351562 -6.03125 3.894531 -5.878906 4.28125 -5.578125 C 4.664062 -5.285156 4.859375 -4.851562 4.859375 -4.28125 C 4.859375 -3.707031 4.660156 -3.253906 4.265625 -2.921875 C 3.867188 -2.597656 3.253906 -2.4375 2.421875 -2.4375 L 1.34375 -2.4375 Z M 2.578125 -5.484375 L 1.34375 -5.484375 L 1.34375 -2.984375 L 2.453125 -2.984375 C 3.085938 -2.984375 3.539062 -3.09375 3.8125 -3.3125 C 4.082031 -3.53125 4.21875 -3.851562 4.21875 -4.28125 C 4.21875 -4.695312 4.082031 -5 3.8125 -5.1875 C 3.550781 -5.382812 3.140625 -5.484375 2.578125 -5.484375 Z M 2.578125 -5.484375 "/></g></g></g><g fill="#000000" fill-opacity="1"><g transform="translate(176.844533, 179.101367)"><g><path d="M 4.1875 -5.46875 L 1.34375 -5.46875 L 1.34375 -3.34375 L 4.109375 -3.34375 L 4.109375 -2.78125 L 1.34375 -2.78125 L 1.34375 -0.5625 L 4.3125 -0.5625 L 4.265625 0 L 0.703125 0 L 0.703125 -6.03125 L 4.1875 -6.03125 Z M 4.1875 -5.46875 "/></g></g></g><g fill="#000000" fill-opacity="1"><g transform="translate(183.929854, 179.101367)"><g><path d="M 4.1875 -5.46875 L 1.34375 -5.46875 L 1.34375 -3.34375 L 4.109375 -3.34375 L 4.109375 -2.78125 L 1.34375 -2.78125 L 1.34375 -0.5625 L 4.3125 -0.5625 L 4.265625 0 L 0.703125 0 L 0.703125 -6.03125 L 4.1875 -6.03125 Z M 4.1875 -5.46875 "/></g></g></g><g fill="#000000" fill-opacity="1"><g transform="translate(191.015174, 179.101367)"><g><path d="M 5.484375 -1.15625 C 5.265625 -0.757812 4.960938 -0.457031 4.578125 -0.25 C 4.191406 -0.0390625 3.75 0.0625 3.25 0.0625 C 2.675781 0.0625 2.179688 -0.0507812 1.765625 -0.28125 C 1.359375 -0.519531 1.046875 -0.863281 0.828125 -1.3125 C 0.609375 -1.757812 0.5 -2.289062 0.5 -2.90625 C 0.5 -3.539062 0.617188 -4.097656 0.859375 -4.578125 C 1.097656 -5.054688 1.4375 -5.429688 1.875 -5.703125 C 2.3125 -5.984375 2.816406 -6.125 3.390625 -6.125 C 3.859375 -6.125 4.269531 -6.023438 4.625 -5.828125 C 4.988281 -5.640625 5.28125 -5.359375 5.5 -4.984375 L 4.984375 -4.59375 C 4.648438 -5.207031 4.113281 -5.515625 3.375 -5.515625 C 2.9375 -5.515625 2.550781 -5.40625 2.21875 -5.1875 C 1.882812 -4.96875 1.625 -4.660156 1.4375 -4.265625 C 1.257812 -3.878906 1.171875 -3.425781 1.171875 -2.90625 C 1.171875 -2.15625 1.351562 -1.570312 1.71875 -1.15625 C 2.082031 -0.738281 2.59375 -0.53125 3.25 -0.53125 C 4.050781 -0.53125 4.628906 -0.863281 4.984375 -1.53125 Z M 5.484375 -1.15625 "/></g></g></g><g fill="#000000" fill-opacity="1"><g transform="translate(199.002118, 179.101367)"><g><path d="M 0.703125 0 L 0.703125 -6.03125 L 1.34375 -6.03125 L 1.34375 -3.359375 L 4.75 -3.359375 L 4.75 -6.03125 L 5.390625 -6.03125 L 5.390625 0 L 4.75 0 L 4.75 -2.78125 L 1.34375 -2.78125 L 1.34375 0 Z M 0.703125 0 "/></g></g></g><g fill="#000000" fill-opacity="1"><g transform="translate(207.575959, 179.101367)"><g/></g></g><g fill="#000000" fill-opacity="1"><g transform="translate(211.990457, 179.101367)"><g><path d="M 1.34375 0 L 0.703125 0 L 0.703125 -6.03125 L 2.65625 -6.03125 C 3.351562 -6.03125 3.894531 -5.878906 4.28125 -5.578125 C 4.664062 -5.285156 4.859375 -4.851562 4.859375 -4.28125 C 4.859375 -3.707031 4.660156 -3.253906 4.265625 -2.921875 C 3.867188 -2.597656 3.253906 -2.4375 2.421875 -2.4375 L 1.34375 -2.4375 Z M 2.578125 -5.484375 L 1.34375 -5.484375 L 1.34375 -2.984375 L 2.453125 -2.984375 C 3.085938 -2.984375 3.539062 -3.09375 3.8125 -3.3125 C 4.082031 -3.53125 4.21875 -3.851562 4.21875 -4.28125 C 4.21875 -4.695312 4.082031 -5 3.8125 -5.1875 C 3.550781 -5.382812 3.140625 -5.484375 2.578125 -5.484375 Z M 2.578125 -5.484375 "/></g></g></g><g fill="#000000" fill-opacity="1"><g transform="translate(219.552111, 179.101367)"><g><path d="M 0.109375 0 L 2.609375 -6.03125 L 3.171875 -6.03125 L 5.578125 0 L 4.921875 0 L 4.296875 -1.609375 L 1.421875 -1.609375 L 0.78125 0 Z M 1.65625 -2.171875 L 4.078125 -2.171875 L 2.890625 -5.234375 Z M 1.65625 -2.171875 "/></g></g></g><g fill="#000000" fill-opacity="1"><g transform="translate(227.751692, 179.101367)"><g><path d="M 4.640625 -6.03125 L 4.578125 -5.46875 L 2.65625 -5.46875 L 2.65625 0 L 1.984375 0 L 1.984375 -5.46875 L 0.015625 -5.46875 L 0.015625 -6.03125 Z M 4.640625 -6.03125 "/></g></g></g><g fill="#000000" fill-opacity="1"><g transform="translate(234.871041, 179.101367)"><g><path d="M 0.703125 0 L 0.703125 -6.03125 L 1.34375 -6.03125 L 1.34375 -3.359375 L 4.75 -3.359375 L 4.75 -6.03125 L 5.390625 -6.03125 L 5.390625 0 L 4.75 0 L 4.75 -2.78125 L 1.34375 -2.78125 L 1.34375 0 Z M 0.703125 0 "/></g></g></g><g fill="#000000" fill-opacity="1"><g transform="translate(243.444886, 179.101367)"><g><path d="M 3.234375 0.0625 C 2.671875 0.0625 2.179688 -0.0507812 1.765625 -0.28125 C 1.359375 -0.519531 1.046875 -0.859375 0.828125 -1.296875 C 0.609375 -1.742188 0.5 -2.28125 0.5 -2.90625 C 0.5 -3.53125 0.617188 -4.082031 0.859375 -4.5625 C 1.109375 -5.050781 1.445312 -5.429688 1.875 -5.703125 C 2.3125 -5.984375 2.816406 -6.125 3.390625 -6.125 C 3.921875 -6.125 4.382812 -6 4.78125 -5.75 C 5.175781 -5.5 5.484375 -5.148438 5.703125 -4.703125 C 5.929688 -4.253906 6.046875 -3.734375 6.046875 -3.140625 C 6.046875 -2.484375 5.921875 -1.914062 5.671875 -1.4375 C 5.429688 -0.957031 5.097656 -0.585938 4.671875 -0.328125 C 4.253906 -0.0664062 3.773438 0.0625 3.234375 0.0625 Z M 3.234375 -0.53125 C 3.660156 -0.53125 4.03125 -0.632812 4.34375 -0.84375 C 4.664062 -1.050781 4.914062 -1.347656 5.09375 -1.734375 C 5.28125 -2.128906 5.375 -2.601562 5.375 -3.15625 C 5.375 -3.632812 5.289062 -4.050781 5.125 -4.40625 C 4.96875 -4.757812 4.738281 -5.03125 4.4375 -5.21875 C 4.144531 -5.414062 3.800781 -5.515625 3.40625 -5.515625 C 2.96875 -5.515625 2.578125 -5.40625 2.234375 -5.1875 C 1.898438 -4.96875 1.640625 -4.660156 1.453125 -4.265625 C 1.265625 -3.878906 1.171875 -3.425781 1.171875 -2.90625 C 1.171875 -2.144531 1.351562 -1.554688 1.71875 -1.140625 C 2.082031 -0.734375 2.585938 -0.53125 3.234375 -0.53125 Z M 3.234375 -0.53125 "/></g></g></g><g fill="#000000" fill-opacity="1"><g transform="translate(252.461024, 179.101367)"><g><path d="M 0.703125 0 L 0.703125 -6.03125 L 1.34375 -6.03125 L 1.34375 -0.5625 L 4.171875 -0.5625 L 4.109375 0 Z M 0.703125 0 "/></g></g></g><g fill="#000000" fill-opacity="1"><g transform="translate(259.053015, 179.101367)"><g><path d="M 3.234375 0.0625 C 2.671875 0.0625 2.179688 -0.0507812 1.765625 -0.28125 C 1.359375 -0.519531 1.046875 -0.859375 0.828125 -1.296875 C 0.609375 -1.742188 0.5 -2.28125 0.5 -2.90625 C 0.5 -3.53125 0.617188 -4.082031 0.859375 -4.5625 C 1.109375 -5.050781 1.445312 -5.429688 1.875 -5.703125 C 2.3125 -5.984375 2.816406 -6.125 3.390625 -6.125 C 3.921875 -6.125 4.382812 -6 4.78125 -5.75 C 5.175781 -5.5 5.484375 -5.148438 5.703125 -4.703125 C 5.929688 -4.253906 6.046875 -3.734375 6.046875 -3.140625 C 6.046875 -2.484375 5.921875 -1.914062 5.671875 -1.4375 C 5.429688 -0.957031 5.097656 -0.585938 4.671875 -0.328125 C 4.253906 -0.0664062 3.773438 0.0625 3.234375 0.0625 Z M 3.234375 -0.53125 C 3.660156 -0.53125 4.03125 -0.632812 4.34375 -0.84375 C 4.664062 -1.050781 4.914062 -1.347656 5.09375 -1.734375 C 5.28125 -2.128906 5.375 -2.601562 5.375 -3.15625 C 5.375 -3.632812 5.289062 -4.050781 5.125 -4.40625 C 4.96875 -4.757812 4.738281 -5.03125 4.4375 -5.21875 C 4.144531 -5.414062 3.800781 -5.515625 3.40625 -5.515625 C 2.96875 -5.515625 2.578125 -5.40625 2.234375 -5.1875 C 1.898438 -4.96875 1.640625 -4.660156 1.453125 -4.265625 C 1.265625 -3.878906 1.171875 -3.425781 1.171875 -2.90625 C 1.171875 -2.144531 1.351562 -1.554688 1.71875 -1.140625 C 2.082031 -0.734375 2.585938 -0.53125 3.234375 -0.53125 Z M 3.234375 -0.53125 "/></g></g></g><g fill="#000000" fill-opacity="1"><g transform="translate(268.069153, 179.101367)"><g><path d="M 3.546875 -2.921875 L 5.65625 -2.921875 L 5.65625 0 L 5.15625 0 L 5.0625 -0.8125 C 4.675781 -0.226562 4.046875 0.0625 3.171875 0.0625 C 2.628906 0.0625 2.15625 -0.0507812 1.75 -0.28125 C 1.351562 -0.519531 1.046875 -0.859375 0.828125 -1.296875 C 0.609375 -1.742188 0.5 -2.28125 0.5 -2.90625 C 0.5 -3.539062 0.617188 -4.097656 0.859375 -4.578125 C 1.109375 -5.054688 1.457031 -5.429688 1.90625 -5.703125 C 2.351562 -5.984375 2.878906 -6.125 3.484375 -6.125 C 4.460938 -6.125 5.171875 -5.742188 5.609375 -4.984375 L 5.09375 -4.59375 C 4.757812 -5.207031 4.207031 -5.515625 3.4375 -5.515625 C 2.988281 -5.515625 2.59375 -5.40625 2.25 -5.1875 C 1.914062 -4.96875 1.648438 -4.660156 1.453125 -4.265625 C 1.265625 -3.878906 1.171875 -3.425781 1.171875 -2.90625 C 1.171875 -2.144531 1.351562 -1.554688 1.71875 -1.140625 C 2.082031 -0.734375 2.585938 -0.53125 3.234375 -0.53125 C 3.773438 -0.53125 4.207031 -0.671875 4.53125 -0.953125 C 4.863281 -1.234375 5.03125 -1.613281 5.03125 -2.09375 L 5.03125 -2.390625 L 3.546875 -2.390625 Z M 3.546875 -2.921875 "/></g></g></g><g fill="#000000" fill-opacity="1"><g transform="translate(276.728052, 179.101367)"><g><path d="M 4.84375 -6.03125 L 2.65625 -2.734375 L 2.65625 0 L 2 0 L 2 -2.71875 L -0.203125 -6.03125 L 0.546875 -6.03125 L 2.359375 -3.296875 L 4.140625 -6.03125 Z M 4.84375 -6.03125 "/></g></g></g><g fill="#000000" fill-opacity="1"><g transform="translate(283.853782, 179.101367)"><g/></g></g></svg>